<?xml version="1.0" standalone="no"?>
<!DOCTYPE svg PUBLIC "-//W3C//DTD SVG 20010904//EN"
 "http://www.w3.org/TR/2001/REC-SVG-20010904/DTD/svg10.dtd">
<svg version="1.0" xmlns="http://www.w3.org/2000/svg"
 width="752.000000pt" height="752.000000pt" viewBox="0 0 752.000000 752.000000"
 preserveAspectRatio="xMidYMid meet">

<g transform="translate(0.000000,752.000000) scale(0.100000,-0.100000)"
fill="#000000" stroke="none">
<path d="M2180 3760 l0 -2000 225 0 225 0 0 1250 0 1250 150 0 150 0 0 -25 c0
-25 -1 -25 -80 -25 l-80 0 0 -825 0 -825 1255 0 1255 0 0 825 0 825 -75 0
c-73 0 -75 1 -75 25 l0 25 155 0 155 0 0 49 c0 47 -2 50 -27 53 -22 2 -29 9
-31 29 -3 24 -8 27 -62 32 -60 7 -657 201 -1850 601 -693 233 -647 216 -628
230 31 24 48 62 48 108 0 39 -6 54 -31 82 -51 59 -131 60 -195 4 l-34 -30 0
171 0 171 -225 0 -225 0 0 -2000z m617 1614 c3 -9 1 -25 -5 -35 -7 -10 -12
-34 -12 -54 0 -28 -3 -33 -17 -29 -36 12 -62 27 -67 40 -7 19 11 64 32 80 24
19 61 17 69 -2z m-107 -180 c25 -12 98 -38 162 -60 l117 -38 -73 -21 c-89 -26
-161 -70 -221 -137 l-45 -50 0 167 c0 92 3 165 8 163 4 -2 27 -13 52 -24z
m445 -221 c113 -35 226 -114 425 -298 172 -159 319 -245 495 -291 l90 -23
-519 -1 -519 0 41 28 c53 36 80 71 102 135 56 162 26 266 -95 323 -81 38 -165
29 -165 -19 0 -30 18 -47 50 -47 41 0 113 -42 129 -74 11 -24 12 -41 3 -89
-16 -85 -41 -127 -93 -155 -38 -21 -54 -23 -125 -20 -65 3 -90 9 -126 31 -87
51 -138 135 -146 239 -4 59 -1 72 21 111 86 146 254 205 432 150z m685 -163
c217 -72 401 -133 408 -136 10 -3 8 -10 -7 -30 -15 -19 -21 -41 -21 -75 0 -40
5 -55 32 -84 l31 -36 -54 6 c-209 25 -392 120 -599 310 -58 53 -129 115 -157
137 -52 40 -65 55 -40 45 6 -3 190 -64 407 -137z m627 -210 c62 -28 72 -81 21
-113 -44 -28 -66 -30 -70 -6 -3 23 -14 31 -62 45 -37 12 -55 38 -40 61 22 35
90 41 151 13z m-1730 -152 c15 -15 53 -41 83 -57 l55 -31 -112 0 -113 0 0 102
0 101 29 -44 c16 -24 42 -56 58 -71z m2156 13 c145 -48 270 -91 278 -94 8 -3
-159 -5 -371 -6 -360 0 -382 1 -335 16 87 26 145 86 145 148 0 14 4 25 9 25 5
0 128 -40 274 -89z m157 -226 l0 -25 -1000 0 -1000 0 0 25 0 25 1000 0 1000 0
0 -25z m150 -875 l0 -700 -1150 0 -1150 0 0 700 0 700 1150 0 1150 0 0 -700z"/>
<path d="M4225 3932 c-3 -12 -1 -38 5 -58 7 -19 9 -38 6 -41 -3 -3 -7 0 -10 8
-13 43 -16 49 -26 49 -15 0 -4 -55 19 -95 9 -16 42 -47 72 -69 l54 -38 -50 5
c-27 3 -76 11 -108 18 l-59 13 -70 -38 c-77 -42 -62 -41 -274 -20 -55 6 -65 4
-105 -22 -24 -15 -59 -41 -76 -58 -30 -27 -33 -35 -33 -89 0 -42 9 -80 30
-134 17 -41 30 -79 30 -84 0 -5 -20 -23 -44 -40 -40 -29 -45 -36 -51 -86 -8
-67 -32 -138 -74 -221 -30 -59 -31 -63 -15 -87 12 -18 25 -25 49 -25 32 0 33
1 25 34 -10 47 5 130 33 185 40 76 53 67 60 -41 5 -84 8 -95 32 -115 14 -13
39 -23 56 -23 16 0 29 1 29 3 0 2 -21 43 -46 92 -42 83 -46 95 -42 148 5 66
15 80 98 130 52 31 58 32 88 20 24 -10 43 -10 82 -2 28 6 54 8 58 4 13 -13 6
-131 -11 -182 -10 -28 -36 -72 -59 -97 -39 -45 -40 -48 -27 -79 16 -39 26 -47
63 -47 23 0 27 3 21 18 -22 48 -16 77 28 151 25 40 52 99 62 130 9 31 25 68
35 81 l17 23 18 -27 c26 -39 57 -179 60 -275 2 -46 8 -88 14 -94 6 -6 11 -16
11 -23 0 -14 36 -25 56 -17 19 7 18 9 -12 83 -23 58 -26 78 -27 204 0 131 1
140 21 157 12 9 22 20 22 23 0 3 8 14 18 24 9 11 25 33 34 51 10 17 25 34 35
37 10 3 31 12 47 20 42 22 53 5 33 -48 -24 -62 -22 -76 6 -50 13 12 30 22 39
22 9 0 19 8 22 17 15 39 62 102 76 103 8 0 21 -9 28 -20 15 -24 52 -27 52 -4
0 13 7 15 30 11 44 -9 60 1 60 37 0 43 -23 72 -78 100 -26 13 -55 33 -65 44
-21 23 -19 25 58 38 67 11 93 29 87 59 -3 18 -8 23 -15 16 -5 -5 -16 -7 -24
-4 -8 3 -27 -3 -41 -14 -15 -11 -39 -24 -52 -28 -21 -6 -18 0 20 39 33 35 42
49 32 55 -9 5 -11 17 -6 34 10 40 -9 32 -46 -19 -31 -44 -34 -46 -47 -28 -8
11 -11 30 -8 46 8 36 -2 53 -22 36 -12 -10 -18 -8 -34 12 -16 21 -20 23 -29
10 -7 -12 -12 -12 -22 -2 -20 20 -31 14 -24 -14 6 -24 5 -24 -16 -12 -13 7
-27 13 -33 13 -5 0 -9 10 -7 22 2 15 -4 23 -20 28 -13 5 -24 3 -26 -4 -6 -19
-32 -12 -32 9 0 25 -30 27 -30 3 -1 -14 -4 -12 -14 6 l-14 24 -7 -21z"/>
</g>
</svg>
